<svg xmlns="http://www.w3.org/2000/svg" width="200" height="200" viewBox="0 0 200 200">
  <rect width="200" height="200" fill="white" rx="8"/>
  <g fill="#1A1A2E">
    <rect x="0.0" y="0.0" width="48.275862068965516" height="48.275862068965516" /><rect x="6.896551724137931" y="6.896551724137931" width="34.48275862068965" height="34.48275862068965" fill="white"/><rect x="13.793103448275861" y="13.793103448275861" width="20.689655172413794" height="20.689655172413794" />
    <rect x="151.72413793103448" y="0.0" width="48.275862068965516" height="48.275862068965516" /><rect x="158.6206896551724" y="6.896551724137931" width="34.48275862068965" height="34.48275862068965" fill="white"/><rect x="165.51724137931035" y="13.793103448275861" width="20.689655172413794" height="20.689655172413794" />
    <rect x="0.0" y="151.72413793103448" width="48.275862068965516" height="48.275862068965516" /><rect x="6.896551724137931" y="158.6206896551724" width="34.48275862068965" height="34.48275862068965" fill="white"/><rect x="13.793103448275861" y="165.51724137931035" width="20.689655172413794" height="20.689655172413794" />
    <rect x="55.2" y="0.0" width="6.9" height="6.9" /><rect x="62.1" y="0.0" width="6.9" height="6.9" /><rect x="69.0" y="0.0" width="6.9" height="6.9" /><rect x="75.9" y="0.0" width="6.9" height="6.9" /><rect x="82.8" y="0.0" width="6.9" height="6.9" /><rect x="89.7" y="0.0" width="6.9" height="6.9" /><rect x="117.2" y="0.0" width="6.9" height="6.9" /><rect x="131.0" y="0.0" width="6.9" height="6.9" /><rect x="62.1" y="6.9" width="6.9" height="6.9" /><rect x="69.0" y="6.9" width="6.9" height="6.9" /><rect x="82.8" y="6.9" width="6.9" height="6.9" /><rect x="89.7" y="6.9" width="6.9" height="6.9" /><rect x="103.4" y="6.9" width="6.9" height="6.9" /><rect x="137.9" y="6.9" width="6.9" height="6.9" /><rect x="69.0" y="13.8" width="6.9" height="6.9" /><rect x="75.9" y="13.8" width="6.9" height="6.9" /><rect x="82.8" y="13.8" width="6.9" height="6.9" /><rect x="110.3" y="13.8" width="6.9" height="6.9" /><rect x="117.2" y="13.8" width="6.9" height="6.9" /><rect x="124.1" y="13.8" width="6.9" height="6.9" /><rect x="131.0" y="13.8" width="6.9" height="6.9" /><rect x="137.9" y="13.8" width="6.9" height="6.9" /><rect x="55.2" y="20.7" width="6.9" height="6.9" /><rect x="62.1" y="20.7" width="6.9" height="6.9" /><rect x="75.9" y="20.7" width="6.9" height="6.9" /><rect x="89.7" y="20.7" width="6.9" height="6.9" /><rect x="103.4" y="20.7" width="6.9" height="6.9" /><rect x="110.3" y="20.7" width="6.9" height="6.9" /><rect x="124.1" y="20.7" width="6.9" height="6.9" /><rect x="131.0" y="20.7" width="6.9" height="6.9" /><rect x="137.9" y="20.7" width="6.9" height="6.9" /><rect x="82.8" y="27.6" width="6.9" height="6.9" /><rect x="103.4" y="27.6" width="6.9" height="6.9" /><rect x="131.0" y="27.6" width="6.9" height="6.9" /><rect x="137.9" y="27.6" width="6.9" height="6.9" /><rect x="55.2" y="34.5" width="6.9" height="6.9" /><rect x="69.0" y="34.5" width="6.9" height="6.9" /><rect x="82.8" y="34.5" width="6.9" height="6.9" /><rect x="96.6" y="34.5" width="6.9" height="6.9" /><rect x="110.3" y="34.5" width="6.9" height="6.9" /><rect x="124.1" y="34.5" width="6.9" height="6.9" /><rect x="62.1" y="48.3" width="6.9" height="6.9" /><rect x="82.8" y="48.3" width="6.9" height="6.9" /><rect x="110.3" y="48.3" width="6.9" height="6.9" /><rect x="131.0" y="48.3" width="6.9" height="6.9" /><rect x="137.9" y="48.3" width="6.9" height="6.9" /><rect x="6.9" y="55.2" width="6.9" height="6.9" /><rect x="13.8" y="55.2" width="6.9" height="6.9" /><rect x="20.7" y="55.2" width="6.9" height="6.9" /><rect x="48.3" y="55.2" width="6.9" height="6.9" /><rect x="55.2" y="55.2" width="6.9" height="6.9" /><rect x="82.8" y="55.2" width="6.9" height="6.9" /><rect x="103.4" y="55.2" width="6.9" height="6.9" /><rect x="110.3" y="55.2" width="6.9" height="6.9" /><rect x="117.2" y="55.2" width="6.9" height="6.9" /><rect x="124.1" y="55.2" width="6.9" height="6.9" /><rect x="131.0" y="55.2" width="6.9" height="6.9" /><rect x="165.5" y="55.2" width="6.9" height="6.9" /><rect x="186.2" y="55.2" width="6.9" height="6.9" /><rect x="13.8" y="62.1" width="6.9" height="6.9" /><rect x="20.7" y="62.1" width="6.9" height="6.9" /><rect x="27.6" y="62.1" width="6.9" height="6.9" /><rect x="34.5" y="62.1" width="6.9" height="6.9" /><rect x="48.3" y="62.1" width="6.9" height="6.9" /><rect x="55.2" y="62.1" width="6.9" height="6.9" /><rect x="82.8" y="62.1" width="6.9" height="6.9" /><rect x="96.6" y="62.1" width="6.9" height="6.9" /><rect x="124.1" y="62.1" width="6.9" height="6.9" /><rect x="131.0" y="62.1" width="6.9" height="6.9" /><rect x="137.9" y="62.1" width="6.9" height="6.9" /><rect x="151.7" y="62.1" width="6.9" height="6.9" /><rect x="165.5" y="62.1" width="6.9" height="6.9" /><rect x="179.3" y="62.1" width="6.9" height="6.9" /><rect x="193.1" y="62.1" width="6.9" height="6.9" /><rect x="6.9" y="69.0" width="6.9" height="6.9" /><rect x="27.6" y="69.0" width="6.9" height="6.9" /><rect x="34.5" y="69.0" width="6.9" height="6.9" /><rect x="48.3" y="69.0" width="6.9" height="6.9" /><rect x="55.2" y="69.0" width="6.9" height="6.9" /><rect x="69.0" y="69.0" width="6.9" height="6.9" /><rect x="103.4" y="69.0" width="6.9" height="6.9" /><rect x="131.0" y="69.0" width="6.9" height="6.9" /><rect x="137.9" y="69.0" width="6.9" height="6.9" /><rect x="151.7" y="69.0" width="6.9" height="6.9" /><rect x="172.4" y="69.0" width="6.9" height="6.9" /><rect x="186.2" y="69.0" width="6.9" height="6.9" /><rect x="34.5" y="75.9" width="6.9" height="6.9" /><rect x="48.3" y="75.9" width="6.9" height="6.9" /><rect x="75.9" y="75.9" width="6.9" height="6.9" /><rect x="82.8" y="75.9" width="6.9" height="6.9" /><rect x="89.7" y="75.9" width="6.9" height="6.9" /><rect x="96.6" y="75.9" width="6.9" height="6.9" /><rect x="103.4" y="75.9" width="6.9" height="6.9" /><rect x="117.2" y="75.9" width="6.9" height="6.9" /><rect x="124.1" y="75.9" width="6.9" height="6.9" /><rect x="131.0" y="75.9" width="6.9" height="6.9" /><rect x="144.8" y="75.9" width="6.9" height="6.9" /><rect x="165.5" y="75.9" width="6.9" height="6.9" /><rect x="193.1" y="75.9" width="6.9" height="6.9" /><rect x="13.8" y="82.8" width="6.9" height="6.9" /><rect x="20.7" y="82.8" width="6.9" height="6.9" /><rect x="27.6" y="82.8" width="6.9" height="6.9" /><rect x="55.2" y="82.8" width="6.9" height="6.9" /><rect x="69.0" y="82.8" width="6.9" height="6.9" /><rect x="75.9" y="82.8" width="6.9" height="6.9" /><rect x="89.7" y="82.8" width="6.9" height="6.9" /><rect x="96.6" y="82.8" width="6.9" height="6.9" /><rect x="103.4" y="82.8" width="6.9" height="6.9" /><rect x="124.1" y="82.8" width="6.9" height="6.9" /><rect x="131.0" y="82.8" width="6.9" height="6.9" /><rect x="137.9" y="82.8" width="6.9" height="6.9" /><rect x="165.5" y="82.8" width="6.9" height="6.9" /><rect x="186.2" y="82.8" width="6.9" height="6.9" /><rect x="193.1" y="82.8" width="6.9" height="6.9" /><rect x="0.0" y="89.7" width="6.9" height="6.9" /><rect x="6.9" y="89.7" width="6.9" height="6.9" /><rect x="13.8" y="89.7" width="6.9" height="6.9" /><rect x="48.3" y="89.7" width="6.9" height="6.9" /><rect x="69.0" y="89.7" width="6.9" height="6.9" /><rect x="96.6" y="89.7" width="6.9" height="6.9" /><rect x="103.4" y="89.7" width="6.9" height="6.9" /><rect x="110.3" y="89.7" width="6.9" height="6.9" /><rect x="117.2" y="89.7" width="6.9" height="6.9" /><rect x="124.1" y="89.7" width="6.9" height="6.9" /><rect x="131.0" y="89.7" width="6.9" height="6.9" /><rect x="137.9" y="89.7" width="6.9" height="6.9" /><rect x="165.5" y="89.7" width="6.9" height="6.9" /><rect x="179.3" y="89.7" width="6.9" height="6.9" /><rect x="6.9" y="96.6" width="6.9" height="6.9" /><rect x="13.8" y="96.6" width="6.9" height="6.9" /><rect x="20.7" y="96.6" width="6.9" height="6.9" /><rect x="34.5" y="96.6" width="6.9" height="6.9" /><rect x="48.3" y="96.6" width="6.9" height="6.9" /><rect x="62.1" y="96.6" width="6.9" height="6.9" /><rect x="75.9" y="96.6" width="6.9" height="6.9" /><rect x="89.7" y="96.6" width="6.9" height="6.9" /><rect x="110.3" y="96.6" width="6.9" height="6.9" /><rect x="117.2" y="96.6" width="6.9" height="6.9" /><rect x="131.0" y="96.6" width="6.9" height="6.9" /><rect x="137.9" y="96.6" width="6.9" height="6.9" /><rect x="151.7" y="96.6" width="6.9" height="6.9" /><rect x="186.2" y="96.6" width="6.9" height="6.9" /><rect x="13.8" y="103.4" width="6.9" height="6.9" /><rect x="20.7" y="103.4" width="6.9" height="6.9" /><rect x="34.5" y="103.4" width="6.9" height="6.9" /><rect x="55.2" y="103.4" width="6.9" height="6.9" /><rect x="69.0" y="103.4" width="6.9" height="6.9" /><rect x="117.2" y="103.4" width="6.9" height="6.9" /><rect x="124.1" y="103.4" width="6.9" height="6.9" /><rect x="131.0" y="103.4" width="6.9" height="6.9" /><rect x="158.6" y="103.4" width="6.9" height="6.9" /><rect x="165.5" y="103.4" width="6.9" height="6.9" /><rect x="172.4" y="103.4" width="6.9" height="6.9" /><rect x="179.3" y="103.4" width="6.9" height="6.9" /><rect x="186.2" y="103.4" width="6.9" height="6.9" /><rect x="0.0" y="110.3" width="6.9" height="6.9" /><rect x="6.9" y="110.3" width="6.9" height="6.9" /><rect x="13.8" y="110.3" width="6.9" height="6.9" /><rect x="27.6" y="110.3" width="6.9" height="6.9" /><rect x="48.3" y="110.3" width="6.9" height="6.9" /><rect x="75.9" y="110.3" width="6.9" height="6.9" /><rect x="96.6" y="110.3" width="6.9" height="6.9" /><rect x="103.4" y="110.3" width="6.9" height="6.9" /><rect x="110.3" y="110.3" width="6.9" height="6.9" /><rect x="124.1" y="110.3" width="6.9" height="6.9" /><rect x="137.9" y="110.3" width="6.9" height="6.9" /><rect x="151.7" y="110.3" width="6.9" height="6.9" /><rect x="158.6" y="110.3" width="6.9" height="6.9" /><rect x="172.4" y="110.3" width="6.9" height="6.9" /><rect x="179.3" y="110.3" width="6.9" height="6.9" /><rect x="186.2" y="110.3" width="6.9" height="6.9" /><rect x="6.9" y="117.2" width="6.9" height="6.9" /><rect x="13.8" y="117.2" width="6.9" height="6.9" /><rect x="20.7" y="117.2" width="6.9" height="6.9" /><rect x="48.3" y="117.2" width="6.9" height="6.9" /><rect x="69.0" y="117.2" width="6.9" height="6.9" /><rect x="75.9" y="117.2" width="6.9" height="6.9" /><rect x="82.8" y="117.2" width="6.9" height="6.9" /><rect x="89.7" y="117.2" width="6.9" height="6.9" /><rect x="96.6" y="117.2" width="6.9" height="6.9" /><rect x="131.0" y="117.2" width="6.9" height="6.9" /><rect x="151.7" y="117.2" width="6.9" height="6.9" /><rect x="179.3" y="117.2" width="6.9" height="6.9" /><rect x="186.2" y="117.2" width="6.9" height="6.9" /><rect x="193.1" y="117.2" width="6.9" height="6.9" /><rect x="0.0" y="124.1" width="6.9" height="6.9" /><rect x="6.9" y="124.1" width="6.9" height="6.9" /><rect x="13.8" y="124.1" width="6.9" height="6.9" /><rect x="20.7" y="124.1" width="6.9" height="6.9" /><rect x="48.3" y="124.1" width="6.9" height="6.9" /><rect x="62.1" y="124.1" width="6.9" height="6.9" /><rect x="89.7" y="124.1" width="6.9" height="6.9" /><rect x="96.6" y="124.1" width="6.9" height="6.9" /><rect x="103.4" y="124.1" width="6.9" height="6.9" /><rect x="117.2" y="124.1" width="6.9" height="6.9" /><rect x="131.0" y="124.1" width="6.9" height="6.9" /><rect x="144.8" y="124.1" width="6.9" height="6.9" /><rect x="158.6" y="124.1" width="6.9" height="6.9" /><rect x="172.4" y="124.1" width="6.9" height="6.9" /><rect x="193.1" y="124.1" width="6.9" height="6.9" /><rect x="0.0" y="131.0" width="6.9" height="6.9" /><rect x="13.8" y="131.0" width="6.9" height="6.9" /><rect x="20.7" y="131.0" width="6.9" height="6.9" /><rect x="34.5" y="131.0" width="6.9" height="6.9" /><rect x="69.0" y="131.0" width="6.9" height="6.9" /><rect x="96.6" y="131.0" width="6.9" height="6.9" /><rect x="103.4" y="131.0" width="6.9" height="6.9" /><rect x="117.2" y="131.0" width="6.9" height="6.9" /><rect x="137.9" y="131.0" width="6.9" height="6.9" /><rect x="151.7" y="131.0" width="6.9" height="6.9" /><rect x="0.0" y="137.9" width="6.9" height="6.9" /><rect x="6.9" y="137.9" width="6.9" height="6.9" /><rect x="13.8" y="137.9" width="6.9" height="6.9" /><rect x="48.3" y="137.9" width="6.9" height="6.9" /><rect x="55.2" y="137.9" width="6.9" height="6.9" /><rect x="62.1" y="137.9" width="6.9" height="6.9" /><rect x="69.0" y="137.9" width="6.9" height="6.9" /><rect x="82.8" y="137.9" width="6.9" height="6.9" /><rect x="89.7" y="137.9" width="6.9" height="6.9" /><rect x="96.6" y="137.9" width="6.9" height="6.9" /><rect x="110.3" y="137.9" width="6.9" height="6.9" /><rect x="131.0" y="137.9" width="6.9" height="6.9" /><rect x="158.6" y="137.9" width="6.9" height="6.9" /><rect x="179.3" y="137.9" width="6.9" height="6.9" /><rect x="186.2" y="137.9" width="6.9" height="6.9" /><rect x="193.1" y="137.9" width="6.9" height="6.9" /><rect x="55.2" y="144.8" width="6.9" height="6.9" /><rect x="62.1" y="144.8" width="6.9" height="6.9" /><rect x="69.0" y="144.8" width="6.9" height="6.9" /><rect x="89.7" y="144.8" width="6.9" height="6.9" /><rect x="96.6" y="144.8" width="6.9" height="6.9" /><rect x="103.4" y="144.8" width="6.9" height="6.9" /><rect x="131.0" y="144.8" width="6.9" height="6.9" /><rect x="151.7" y="144.8" width="6.9" height="6.9" /><rect x="158.6" y="144.8" width="6.9" height="6.9" /><rect x="165.5" y="144.8" width="6.9" height="6.9" /><rect x="172.4" y="144.8" width="6.9" height="6.9" /><rect x="179.3" y="144.8" width="6.9" height="6.9" /><rect x="62.1" y="151.7" width="6.9" height="6.9" /><rect x="69.0" y="151.7" width="6.9" height="6.9" /><rect x="75.9" y="151.7" width="6.9" height="6.9" /><rect x="82.8" y="151.7" width="6.9" height="6.9" /><rect x="89.7" y="151.7" width="6.9" height="6.9" /><rect x="96.6" y="151.7" width="6.9" height="6.9" /><rect x="103.4" y="151.7" width="6.9" height="6.9" /><rect x="131.0" y="151.7" width="6.9" height="6.9" /><rect x="144.8" y="151.7" width="6.9" height="6.9" /><rect x="172.4" y="151.7" width="6.9" height="6.9" /><rect x="179.3" y="151.7" width="6.9" height="6.9" /><rect x="186.2" y="151.7" width="6.9" height="6.9" /><rect x="55.2" y="158.6" width="6.9" height="6.9" /><rect x="75.9" y="158.6" width="6.9" height="6.9" /><rect x="82.8" y="158.6" width="6.9" height="6.9" /><rect x="96.6" y="158.6" width="6.9" height="6.9" /><rect x="103.4" y="158.6" width="6.9" height="6.9" /><rect x="117.2" y="158.6" width="6.9" height="6.9" /><rect x="151.7" y="158.6" width="6.9" height="6.9" /><rect x="179.3" y="158.6" width="6.9" height="6.9" /><rect x="186.2" y="158.6" width="6.9" height="6.9" /><rect x="82.8" y="165.5" width="6.9" height="6.9" /><rect x="89.7" y="165.5" width="6.9" height="6.9" /><rect x="96.6" y="165.5" width="6.9" height="6.9" /><rect x="124.1" y="165.5" width="6.9" height="6.9" /><rect x="131.0" y="165.5" width="6.9" height="6.9" /><rect x="137.9" y="165.5" width="6.9" height="6.9" /><rect x="144.8" y="165.5" width="6.9" height="6.9" /><rect x="151.7" y="165.5" width="6.9" height="6.9" /><rect x="165.5" y="165.5" width="6.9" height="6.9" /><rect x="172.4" y="165.5" width="6.9" height="6.9" /><rect x="179.3" y="165.5" width="6.9" height="6.9" /><rect x="193.1" y="165.5" width="6.9" height="6.9" /><rect x="62.1" y="172.4" width="6.9" height="6.9" /><rect x="69.0" y="172.4" width="6.9" height="6.9" /><rect x="75.9" y="172.4" width="6.9" height="6.9" /><rect x="89.7" y="172.4" width="6.9" height="6.9" /><rect x="103.4" y="172.4" width="6.9" height="6.9" /><rect x="117.2" y="172.4" width="6.9" height="6.9" /><rect x="124.1" y="172.4" width="6.9" height="6.9" /><rect x="137.9" y="172.4" width="6.9" height="6.9" /><rect x="144.8" y="172.4" width="6.9" height="6.9" /><rect x="151.7" y="172.4" width="6.9" height="6.9" /><rect x="172.4" y="172.4" width="6.9" height="6.9" /><rect x="179.3" y="172.4" width="6.9" height="6.9" /><rect x="186.2" y="172.4" width="6.9" height="6.9" /><rect x="55.2" y="179.3" width="6.9" height="6.9" /><rect x="62.1" y="179.3" width="6.9" height="6.9" /><rect x="96.6" y="179.3" width="6.9" height="6.9" /><rect x="117.2" y="179.3" width="6.9" height="6.9" /><rect x="144.8" y="179.3" width="6.9" height="6.9" /><rect x="151.7" y="179.3" width="6.9" height="6.9" /><rect x="158.6" y="179.3" width="6.9" height="6.9" /><rect x="165.5" y="179.3" width="6.9" height="6.9" /><rect x="172.4" y="179.3" width="6.9" height="6.9" /><rect x="179.3" y="179.3" width="6.9" height="6.9" /><rect x="186.2" y="179.3" width="6.9" height="6.9" /><rect x="55.2" y="186.2" width="6.9" height="6.9" /><rect x="62.1" y="186.2" width="6.9" height="6.9" /><rect x="69.0" y="186.2" width="6.9" height="6.9" /><rect x="82.8" y="186.2" width="6.9" height="6.9" /><rect x="96.6" y="186.2" width="6.9" height="6.9" /><rect x="110.3" y="186.2" width="6.9" height="6.9" /><rect x="124.1" y="186.2" width="6.9" height="6.9" /><rect x="137.9" y="186.2" width="6.9" height="6.9" /><rect x="158.6" y="186.2" width="6.9" height="6.9" /><rect x="165.5" y="186.2" width="6.9" height="6.9" /><rect x="179.3" y="186.2" width="6.9" height="6.9" /><rect x="186.2" y="186.2" width="6.9" height="6.9" /><rect x="62.1" y="193.1" width="6.9" height="6.9" /><rect x="69.0" y="193.1" width="6.9" height="6.9" /><rect x="82.8" y="193.1" width="6.9" height="6.9" /><rect x="103.4" y="193.1" width="6.9" height="6.9" /><rect x="117.2" y="193.1" width="6.9" height="6.9" /><rect x="165.5" y="193.1" width="6.9" height="6.9" /><rect x="172.4" y="193.1" width="6.9" height="6.9" /><rect x="179.3" y="193.1" width="6.9" height="6.9" /><rect x="55.2" y="41.4" width="6.9" height="6.9" /><rect x="41.4" y="55.2" width="6.9" height="6.9" /><rect x="69.0" y="41.4" width="6.9" height="6.9" /><rect x="41.4" y="69.0" width="6.9" height="6.9" /><rect x="82.8" y="41.4" width="6.9" height="6.9" /><rect x="41.4" y="82.8" width="6.9" height="6.9" /><rect x="96.6" y="41.4" width="6.9" height="6.9" /><rect x="41.4" y="96.6" width="6.9" height="6.9" /><rect x="110.3" y="41.4" width="6.9" height="6.9" /><rect x="41.4" y="110.3" width="6.9" height="6.9" /><rect x="124.1" y="41.4" width="6.9" height="6.9" /><rect x="41.4" y="124.1" width="6.9" height="6.9" /><rect x="137.9" y="41.4" width="6.9" height="6.9" /><rect x="41.4" y="137.9" width="6.9" height="6.9" />
  </g>
</svg>