<svg width="44" height="44" viewBox="0 0 44 44" fill="none" xmlns="http://www.w3.org/2000/svg">
<circle cx="22" cy="22" r="22" fill="#0D7377"/>
<path d="M23.9434 30.7649C23.9433 31.4543 24.1476 32.1283 24.5306 32.7015C24.9136 33.2748 25.4579 33.7216 26.0949 33.9855C26.7318 34.2494 27.4326 34.3184 28.1088 34.184C28.785 34.0495 29.4061 33.7175 29.8936 33.23C30.3811 32.7425 30.7131 32.1214 30.8475 31.4452C30.982 30.7691 30.9129 30.0682 30.6491 29.4313C30.3852 28.7944 29.9384 28.25 29.3651 27.867C28.7919 27.4841 28.1179 27.2797 27.4285 27.2798C26.5045 27.2808 25.6186 27.6483 24.9653 28.3017C24.3119 28.9551 23.9444 29.8409 23.9434 30.7649ZM27.8209 27.7899L28.5367 29.2398L30.137 29.4725C30.2179 29.4843 30.2938 29.5184 30.3562 29.571C30.4186 29.6237 30.4651 29.6927 30.4903 29.7704C30.5155 29.848 30.5185 29.9312 30.4989 30.0105C30.4793 30.0897 30.4379 30.1619 30.3794 30.2189L29.2214 31.3472L29.4948 32.941C29.5056 33.0038 29.5025 33.0682 29.4858 33.1297C29.4691 33.1912 29.4391 33.2483 29.398 33.297C29.3569 33.3458 29.3057 33.3849 29.2479 33.4118C29.1901 33.4386 29.1271 33.4525 29.0634 33.4525C28.9927 33.4525 28.923 33.4353 28.8604 33.4022L27.4285 32.6501L25.9979 33.4022C25.9256 33.4403 25.8441 33.4574 25.7626 33.4516C25.6811 33.4457 25.6029 33.4172 25.5368 33.3692C25.4707 33.3212 25.4193 33.2557 25.3885 33.18C25.3577 33.1043 25.3488 33.0216 25.3626 32.941L25.636 31.3472L24.478 30.2189C24.4195 30.1619 24.3781 30.0897 24.3585 30.0104C24.339 29.9311 24.342 29.8479 24.3673 29.7702C24.3925 29.6925 24.439 29.6235 24.5015 29.5709C24.564 29.5183 24.64 29.4842 24.7208 29.4725L26.3207 29.2398L27.0365 27.7899C27.0767 27.7217 27.1341 27.6652 27.2029 27.6259C27.2717 27.5866 27.3495 27.566 27.4287 27.566C27.5079 27.566 27.5857 27.5866 27.6545 27.6259C27.7233 27.6652 27.7807 27.7217 27.8209 27.7899Z" fill="white"/>
<path d="M27.0039 29.8335C26.9725 29.897 26.9262 29.952 26.8689 29.9937C26.8116 30.0354 26.745 30.0625 26.6749 30.0728L25.7246 30.211L26.4124 30.8813C26.4631 30.9308 26.501 30.9919 26.5229 31.0594C26.5448 31.1268 26.5499 31.1986 26.5379 31.2685L26.3747 32.2152L27.2244 31.7685C27.2872 31.7355 27.3571 31.7183 27.428 31.7183C27.499 31.7183 27.5689 31.7355 27.6317 31.7685L28.4822 32.2157L28.3199 31.2685C28.3078 31.1986 28.313 31.1268 28.3349 31.0594C28.3567 30.9919 28.3947 30.9308 28.4454 30.8813L29.1336 30.211L28.1834 30.0728C28.1132 30.0626 28.0465 30.0355 27.9891 29.9938C27.9317 29.9521 27.8853 29.8971 27.8539 29.8335L27.4282 28.972L27.0039 29.8335Z" fill="white"/>
<path d="M21.2007 12.2346C20.2807 12.2357 19.3986 12.6016 18.748 13.2522C18.0975 13.9028 17.7315 14.7848 17.7305 15.7049V17.3967H24.6688V15.7049C24.6679 14.7852 24.3022 13.9034 23.6521 13.2528C23.002 12.6023 22.1204 12.2361 21.2007 12.2346Z" fill="white"/>
<path d="M16.8557 15.7049C16.8499 15.1306 16.958 14.5609 17.1738 14.0287C17.3896 13.4964 17.7087 13.0123 18.1128 12.6042C18.5168 12.196 18.9977 11.8721 19.5278 11.651C20.0578 11.4299 20.6264 11.316 21.2007 11.316C21.775 11.316 22.3436 11.4299 22.8736 11.651C23.4036 11.8721 23.8846 12.196 24.2886 12.6042C24.6927 13.0123 25.0118 13.4964 25.2276 14.0287C25.4433 14.5609 25.5515 15.1306 25.5457 15.7049V17.3967H27.1522V15.7036C27.1522 14.1247 26.525 12.6105 25.4086 11.4941C24.2922 10.3777 22.778 9.75049 21.1992 9.75049C19.6203 9.75049 18.1061 10.3777 16.9897 11.4941C15.8733 12.6105 15.2461 14.1247 15.2461 15.7036V17.3967H16.8557V15.7049Z" fill="white"/>
<path d="M14.3289 33.7985H24.3039C23.5879 33.0658 23.1534 32.1041 23.0766 31.0825C22.9999 30.061 23.286 29.0451 23.8845 28.2137C24.4829 27.3822 25.3555 26.7885 26.3486 26.537C27.3417 26.2856 28.3916 26.3924 29.3137 26.8388V19.5142C29.3125 19.1858 29.1819 18.8711 28.95 18.6385C28.7182 18.406 28.4039 18.2743 28.0756 18.2721H14.3271C13.998 18.2729 13.6825 18.4041 13.4499 18.637C13.2173 18.8699 13.0864 19.1854 13.0859 19.5146V32.5521C13.0859 32.8821 13.2168 33.1986 13.4498 33.4322C13.6828 33.6659 13.9989 33.7976 14.3289 33.7985ZM14.0979 21.4142C14.0979 21.2982 14.144 21.1869 14.226 21.1049C14.3081 21.0228 14.4193 20.9767 14.5354 20.9767C14.6514 20.9767 14.7627 21.0228 14.8447 21.1049C14.9268 21.1869 14.9729 21.2982 14.9729 21.4142V23.383C14.9729 23.499 14.9268 23.6103 14.8447 23.6923C14.7627 23.7744 14.6514 23.8205 14.5354 23.8205C14.4193 23.8205 14.3081 23.7744 14.226 23.6923C14.144 23.6103 14.0979 23.499 14.0979 23.383V21.4142ZM14.0979 25.2458C14.0979 25.1298 14.144 25.0185 14.226 24.9365C14.3081 24.8544 14.4193 24.8083 14.5354 24.8083C14.6514 24.8083 14.7627 24.8544 14.8447 24.9365C14.9268 25.0185 14.9729 25.1298 14.9729 25.2458V26.2407C14.9729 26.3568 14.9268 26.468 14.8447 26.5501C14.7627 26.6321 14.6514 26.6782 14.5354 26.6782C14.4193 26.6782 14.3081 26.6321 14.226 26.5501C14.144 26.468 14.0979 26.3568 14.0979 26.2407V25.2458ZM14.0979 27.9837C14.0979 27.8677 14.144 27.7564 14.226 27.6744C14.3081 27.5923 14.4193 27.5462 14.5354 27.5462C14.6514 27.5462 14.7627 27.5923 14.8447 27.6744C14.9268 27.7564 14.9729 27.8677 14.9729 27.9837V29.2328C14.9729 29.3488 14.9268 29.4601 14.8447 29.5421C14.7627 29.6242 14.6514 29.6703 14.5354 29.6703C14.4193 29.6703 14.3081 29.6242 14.226 29.5421C14.144 29.4601 14.0979 29.3488 14.0979 29.2328V27.9837Z" fill="white"/>
</svg>
