<svg width="44" height="44" viewBox="0 0 44 44" fill="none" xmlns="http://www.w3.org/2000/svg">
<circle cx="22" cy="22" r="22" fill="#0D7377"/>
<path d="M13.1146 19.3508C12.6785 17.9117 13.8254 18.2111 14.1367 18.327C14.6557 18.5588 15.4695 18.182 15.6627 17.8344C14.5037 18.2547 14.3081 17.8732 13.841 17.6125C13.3223 17.323 12.3104 17.4386 12.2325 18.2789C12.2064 18.7133 12.4268 18.9886 13.1146 19.3508Z" fill="white"/>
<path d="M12.4863 21.4845C12.4431 21.5331 12.4161 21.5964 12.4161 21.6664C12.4161 21.8183 12.5394 21.9415 12.6913 21.9415H14.1357C14.2876 21.9415 14.4108 21.8183 14.4108 21.6664C14.4108 21.5964 14.3838 21.5331 14.3407 21.4845C14.5723 21.3338 14.7557 21.1049 14.8992 20.8585C15.027 20.9291 15.1736 20.9694 15.3296 20.9694C15.8226 20.9694 16.2238 20.5682 16.2238 20.0752C16.2238 19.7423 15.7421 19.6243 15.3296 19.6243C15.3019 19.6243 15.274 19.625 15.246 19.6261H11.4785C11.4785 19.6259 11.719 20.9849 12.4863 21.4845ZM15.9486 20.0752C15.9486 20.4165 15.6709 20.6942 15.3296 20.6942C15.2195 20.6942 15.1175 20.663 15.0278 20.6124C15.1517 20.3484 15.2343 20.0881 15.2845 19.901C15.2999 19.9006 15.3136 19.8994 15.3296 19.8994C15.5094 19.8994 15.6816 19.9248 15.8023 19.9693C15.9028 20.0063 15.9486 20.0502 15.9486 20.0752Z" fill="white"/>
<path d="M25.7194 17.036V16.6339L29.9439 12.7398C30.2429 12.4642 30.3654 12.0462 30.2629 11.6529C30.1603 11.2595 29.8491 10.9546 29.4537 10.8602L25.1688 9.83705C25.324 10.2268 25.4104 10.651 25.4104 11.0953C25.4104 11.4522 25.3551 11.7964 25.2529 12.12L26.9334 12.5213L24.2721 14.9743H19.7256L17.0645 12.5212L18.7449 12.1199C18.6428 11.7964 18.5874 11.4522 18.5874 11.0952C18.5874 10.6509 18.6737 10.2265 18.829 9.83691L14.5442 10.8601C14.1487 10.9546 13.8375 11.2593 13.7349 11.6527C13.6323 12.0462 13.755 12.4641 14.0539 12.7396L18.2783 16.6336V17.0359L25.7194 17.036Z" fill="white"/>
<path d="M18.9043 11.0952C18.9043 12.8047 20.2901 14.1903 21.9995 14.1903C23.7091 14.1903 25.0946 12.8047 25.0946 11.0952C25.0946 9.38567 23.7091 8 21.9995 8C20.2902 8 18.9043 9.38567 18.9043 11.0952ZM21.9996 13.0787C21.1837 13.0787 20.4691 12.6444 20.0689 11.9963H23.9303C23.5301 12.6445 22.8155 13.0787 21.9996 13.0787Z" fill="white"/>
<path d="M16.6933 35.9881C16.7607 35.9961 16.8274 36 16.8936 36C17.6961 36 18.3935 35.427 18.5453 34.6313H15.2363C15.3706 35.3337 15.9453 35.8995 16.6933 35.9881Z" fill="white"/>
<path d="M27.1068 36C27.1728 36 27.2398 35.9961 27.3071 35.9881C28.055 35.8995 28.6298 35.3337 28.764 34.6313H25.4551C25.6068 35.427 26.3041 36 27.1068 36Z" fill="white"/>
<path d="M9.80273 22.9443V23.6322H10.8115V24.8472H11.5567V35.8929H12.4508V34.2187H31.5482V35.8929H32.4423V24.8472H33.1874V23.6322H34.1962V22.9443H9.80273Z" fill="white"/>
<path d="M26.8916 22.6735V22.5317V22.119H26.4474H26.0347V17.4487H17.9643V22.119H17.5516H17.1074V22.5317V22.6735H26.8916ZM21.9996 19.7159C22.1896 19.7159 22.3435 19.8698 22.3435 20.0598C22.3435 20.2498 22.1896 20.4037 21.9996 20.4037C21.8096 20.4037 21.6557 20.2498 21.6557 20.0598C21.6557 19.8698 21.8096 19.7159 21.9996 19.7159Z" fill="white"/>
<path d="M11.8711 22.1216H14.7943V22.4311H11.8711V22.1216Z" fill="white"/>
<path d="M28.0879 21.9026H33.0924V22.2029H28.0879V21.9026Z" fill="white"/>
<path d="M28.5645 21.24H33.569V21.5403H28.5645V21.24Z" fill="white"/>
<path d="M28.0879 20.5774H33.0924V20.8777H28.0879V20.5774Z" fill="white"/>
<path d="M28.5645 19.9148H33.569V20.2151H28.5645V19.9148Z" fill="white"/>
</svg>
