<svg width="23" height="23" viewBox="0 0 23 23" fill="none" xmlns="http://www.w3.org/2000/svg">
<path d="M8.75098 10.5002C8.25098 10.0002 7.62598 10.0002 7.12598 10.5002C6.62598 11.0002 6.62598 11.6252 7.12598 12.1252L10.501 15.5002C10.751 15.7502 11.001 15.8752 11.251 15.8752C11.501 15.8752 11.751 15.7502 12.001 15.5002L19.876 6.50022C20.251 6.00022 20.251 5.25022 19.626 4.87522C19.126 4.50022 18.501 4.50021 18.126 5.00022L11.251 12.8752L8.75098 10.5002Z" fill="white"/>
<path d="M21.375 10.125C20.75 10.125 20.25 10.625 20.25 11.25C20.25 16.125 16.25 20.25 11.25 20.25C6.25 20.25 2.375 16.125 2.375 11.25C2.375 8.875 3.25 6.625 5 5C6.625 3.25 8.875 2.25 11.375 2.25C12 2.25 12.875 2.375 13.5 2.5C14 2.75 14.75 2.375 15 1.75C15.25 1.125 14.75 0.625 14.25 0.375H14.125C13.125 0.125 12.25 0 11.25 0C5.125 0 0 5 0 11.25C0 14.125 1.25 17.125 3.25 19.125C5.375 21.25 8.125 22.375 11.125 22.375C17.25 22.375 22.375 17.375 22.375 11.125C22.5 10.625 21.875 10.125 21.375 10.125Z" fill="white"/>
</svg>
