<svg width="44" height="44" viewBox="0 0 44 44" fill="none" xmlns="http://www.w3.org/2000/svg">
<circle cx="22" cy="22" r="22" fill="#0D7377"/>
<path fill-rule="evenodd" clip-rule="evenodd" d="M19.9973 25.8946C19.8562 25.7535 19.8562 25.5247 19.9973 25.3836C20.1384 25.2425 20.3672 25.2425 20.5083 25.3836L21.5015 26.3767C21.5196 26.3949 21.5488 26.3957 21.5679 26.3784L23.5072 24.6291C23.6553 24.4958 23.8835 24.5078 24.0168 24.656C24.1501 24.8041 24.1381 25.0323 23.99 25.1656L21.777 27.1617C21.7764 27.1622 21.7759 27.1627 21.7753 27.1633C21.6342 27.3035 21.406 27.3032 21.2652 27.1624L19.9973 25.8946ZM21.9707 19.076C20.3542 20.5055 18.1433 21.5289 15.9942 21.8444C15.9707 21.8478 15.9535 21.8674 15.953 21.8911C15.9072 24.2588 15.981 26.6221 16.7561 28.6098C17.5433 30.6288 19.074 32.2819 21.9863 33.1915C21.9961 33.1946 22.0053 33.1946 22.0151 33.1915C24.927 32.2821 26.4578 30.6283 27.2453 28.6084L27.2458 28.6086C28.0204 26.6211 28.0942 24.2584 28.0484 21.8912C28.048 21.8674 28.0307 21.8479 28.0072 21.8445C25.8423 21.528 23.6666 20.5102 22.0344 19.0758C22.016 19.0598 21.9889 19.0598 21.9707 19.076ZM22.0007 21.4789C19.6657 21.4789 17.7726 23.3719 17.7726 25.707C17.7726 28.042 19.6656 29.935 22.0007 29.935C24.3357 29.935 26.2287 28.042 26.2287 25.707C26.2287 23.372 24.3357 21.4789 22.0007 21.4789ZM13.0956 16.7498H30.9058C30.99 16.7498 31.0753 16.7027 31.0753 16.6677V15.8882C31.0753 15.6959 30.9573 15.5582 30.7848 15.4635L22.5726 10.9513C22.2197 10.7574 21.7817 10.7574 21.4288 10.9513L13.2165 15.4635C13.0441 15.5582 12.926 15.6959 12.926 15.8882V16.6677C12.926 16.7027 13.0113 16.7498 13.0956 16.7498ZM20.8007 14.0445C20.8007 13.3818 21.338 12.8446 22.0007 12.8446C22.6634 12.8446 23.2006 13.3818 23.2006 14.0445C23.2006 14.7072 22.6634 15.2446 22.0007 15.2446C21.3379 15.2446 20.8007 14.7073 20.8007 14.0445ZM16.0833 21.0593C16.0833 21.0831 16.0664 21.103 16.0428 21.1069C15.882 21.1331 15.7213 21.1552 15.5611 21.1729L15.5611 21.1735C15.3844 21.1928 15.2449 21.3404 15.2406 21.5229C15.1955 23.4215 15.2086 25.3322 15.5687 27.0919C15.5718 27.1066 15.5684 27.1204 15.5589 27.1321C15.5494 27.1437 15.5365 27.1498 15.5216 27.1498H14.2224C14.1959 27.1498 14.1743 27.1281 14.1743 27.1016V17.5208C14.1743 17.4942 14.1959 17.4726 14.2224 17.4726H16.0351C16.0617 17.4726 16.0833 17.4942 16.0833 17.5208V21.0593ZM28.4798 27.1498C28.4648 27.1498 28.4519 27.1437 28.4425 27.1321C28.433 27.1205 28.4296 27.1066 28.4326 27.0919C28.7914 25.3394 28.8057 23.4371 28.7613 21.5461C28.7613 21.5452 28.7613 21.5443 28.7614 21.5433C28.7677 21.3566 28.6291 21.1937 28.4404 21.1728C28.2799 21.1551 28.1192 21.1331 27.9587 21.107C27.9352 21.1032 27.9182 21.0832 27.9182 21.0594V17.5207C27.9182 17.4941 27.9398 17.4725 27.9664 17.4725H29.779C29.8056 17.4725 29.8272 17.4941 29.8272 17.5207V27.1015C29.8272 27.128 29.8056 27.1496 29.779 27.1496H28.4798V27.1498ZM27.9306 29.0164C27.9142 29.0164 27.9 29.0089 27.8908 28.9952C27.8815 28.9816 27.8798 28.9656 27.8859 28.9503C27.8965 28.924 27.9069 28.8975 27.9173 28.871L27.9168 28.8708C28.0325 28.5815 28.1501 28.2171 28.2364 27.9078C28.2423 27.8867 28.2609 27.8726 28.2829 27.8726H30.7911C30.8177 27.8726 30.8393 27.8942 30.8393 27.9207V28.9682C30.8393 28.9948 30.8177 29.0164 30.7911 29.0164H27.9306ZM27.5114 29.765C27.5199 29.7488 27.5357 29.7392 27.554 29.7392H32.3395C32.3528 29.7392 32.3642 29.744 32.3736 29.7533L32.3764 29.7561V30.8283C32.3764 30.8416 32.3717 30.853 32.3623 30.8624L32.3594 30.8652H26.9104C26.8918 30.8652 26.8758 30.8554 26.8674 30.8388C26.859 30.8221 26.8606 30.8034 26.8717 30.7885C27.113 30.4619 27.325 30.1202 27.5114 29.765ZM16.4481 29.7392C16.4664 29.7392 16.4822 29.7487 16.4907 29.765C16.677 30.1201 16.8892 30.4619 17.1304 30.7884C17.1415 30.8034 17.1431 30.8221 17.1347 30.8387C17.1263 30.8553 17.1103 30.8652 17.0917 30.8652H11.6619C11.6486 30.8652 11.6372 30.8604 11.6278 30.8511L11.625 30.8483V29.776C11.625 29.7628 11.6297 29.7514 11.6391 29.742L11.6419 29.7392H16.4481ZM16.0841 28.8696C16.0946 28.8966 16.1053 28.9234 16.116 28.9503C16.1222 28.9656 16.1205 28.9816 16.1112 28.9952C16.102 29.0089 16.0878 29.0164 16.0713 29.0164H13.2103C13.1838 29.0164 13.1621 28.9948 13.1621 28.9682V27.9207C13.1621 27.8942 13.1838 27.8726 13.2103 27.8726H15.7185C15.7404 27.8726 15.759 27.8867 15.7649 27.9078C15.8562 28.2353 15.9619 28.5563 16.0841 28.8696Z" fill="white"/>
</svg>
