<svg width="81" height="81" viewBox="0 0 81 81" fill="none" xmlns="http://www.w3.org/2000/svg">
<path d="M52.5624 76.95H34.027C29.7994 76.95 26.3604 73.5109 26.3604 69.2834V68.3629C26.3604 67.6843 26.9103 67.1344 27.5888 67.1344C28.2673 67.1344 28.8174 67.6844 28.8174 68.3629V69.2834C28.8174 72.1556 31.1547 74.493 34.027 74.493H52.5624C58.4851 74.493 63.3033 69.6741 63.3033 63.7514V52.6196C63.3033 51.9409 63.8533 51.3911 64.5319 51.3911C65.2105 51.3911 65.7604 51.9411 65.7604 52.6196V63.7514C65.7605 71.0292 59.8398 76.95 52.5624 76.95Z" fill="white"/>
<path d="M64.5317 33.6984C63.8531 33.6984 63.3031 33.1484 63.3031 32.4698V22.9225C63.3031 19.862 60.8133 17.3722 57.7528 17.3722H56.421C55.7424 17.3722 55.1924 16.8222 55.1924 16.1436C55.1924 15.465 55.7424 14.915 56.421 14.915H57.7528C62.1681 14.915 65.7601 18.5072 65.7601 22.9225V32.4698C65.7603 33.1482 65.2103 33.6984 64.5317 33.6984Z" fill="white"/>
<path d="M43.4725 15.6674H21.1632C20.4846 15.6674 19.9346 15.1174 19.9346 14.4388C19.9346 13.7601 20.4846 13.2101 21.1632 13.2101H43.4725C44.1511 13.2101 44.7011 13.7601 44.7011 14.4388C44.7013 15.1174 44.1511 15.6674 43.4725 15.6674Z" fill="white"/>
<path d="M43.4725 19.9881H21.1632C20.4846 19.9881 19.9346 19.4381 19.9346 18.7595C19.9346 18.0808 20.4846 17.531 21.1632 17.531H43.4725C44.1511 17.531 44.7011 18.0808 44.7011 18.7595C44.7013 19.4381 44.1511 19.9881 43.4725 19.9881Z" fill="white"/>
<path d="M48.8303 27.3336H15.8046C15.126 27.3336 14.5762 26.7836 14.5762 26.105C14.5762 25.4264 15.1262 24.8765 15.8046 24.8765H48.8303C49.5089 24.8765 50.0587 25.4265 50.0587 26.105C50.0587 26.7838 49.5087 27.3336 48.8303 27.3336Z" fill="white"/>
<path d="M48.8303 33.0946H15.8046C15.126 33.0946 14.5762 32.5446 14.5762 31.866C14.5762 31.1874 15.1262 30.6376 15.8046 30.6376H48.8303C49.5089 30.6376 50.0587 31.1876 50.0587 31.866C50.0587 32.5445 49.5087 33.0946 48.8303 33.0946Z" fill="white"/>
<path d="M48.8303 38.8556H15.8046C15.126 38.8556 14.5762 38.3056 14.5762 37.6269C14.5762 36.9483 15.1262 36.3985 15.8046 36.3985H48.8303C49.5089 36.3985 50.0587 36.9485 50.0587 37.6269C50.0587 38.3056 49.5087 38.8556 48.8303 38.8556Z" fill="white"/>
<path d="M48.8303 44.6171H15.8046C15.126 44.6171 14.5762 44.0671 14.5762 43.3885C14.5762 42.7098 15.1262 42.1599 15.8046 42.1599H48.8303C49.5089 42.1599 50.0587 42.7098 50.0587 43.3885C50.0587 44.0669 49.5087 44.6171 48.8303 44.6171Z" fill="white"/>
<path d="M48.8303 50.3778H15.8046C15.126 50.3778 14.5762 49.8278 14.5762 49.1493C14.5762 48.4707 15.1262 47.9207 15.8046 47.9207H48.8303C49.5089 47.9207 50.0587 48.4707 50.0587 49.1493C50.0587 49.8279 49.5087 50.3778 48.8303 50.3778Z" fill="white"/>
<path d="M48.8303 56.1388H15.8046C15.126 56.1388 14.5762 55.5888 14.5762 54.9104C14.5762 54.2318 15.1262 53.6818 15.8046 53.6818H48.8303C49.5089 53.6818 50.0587 54.2318 50.0587 54.9104C50.0587 55.5888 49.5087 56.1388 48.8303 56.1388Z" fill="white"/>
<path d="M48.8303 61.9002H15.8046C15.126 61.9002 14.5762 61.3502 14.5762 60.6716C14.5762 59.9929 15.1262 59.4431 15.8046 59.4431H48.8303C49.5089 59.4431 50.0587 59.9931 50.0587 60.6716C50.0587 61.3502 49.5087 61.9002 48.8303 61.9002Z" fill="white"/>
<path d="M65.0288 46.2937C64.7145 46.2937 64.4 46.1737 64.1601 45.9338L61.6324 43.4059C61.4019 43.1756 61.2725 42.8632 61.2725 42.5373V37.5248C61.2725 36.8462 61.8225 36.2964 62.5009 36.2964C63.1795 36.2964 63.7295 36.8464 63.7295 37.5248V42.0284L65.8974 44.1963C66.3772 44.6762 66.3772 45.4536 65.8974 45.9336C65.6575 46.1737 65.343 46.2937 65.0288 46.2937Z" fill="white"/>
<path d="M49.0546 69.5915H15.5808C10.8416 69.5915 6.98633 65.7357 6.98633 60.9966V12.6447C6.98649 7.90559 10.8416 4.04999 15.5808 4.04999H49.0545C53.7936 4.04999 57.6494 7.90559 57.6494 12.6447V60.9964C57.6496 65.7357 53.7938 69.5915 49.0546 69.5915ZM15.5808 6.5072C12.1969 6.5072 9.44371 9.26056 9.44371 12.6449V60.9966C9.44371 64.3811 12.1969 67.1342 15.5808 67.1342H49.0545C52.439 67.1342 55.1922 64.3809 55.1922 60.9966V12.6447C55.1922 9.26039 52.439 6.50704 49.0545 6.50704L15.5808 6.5072Z" fill="white"/>
<path d="M62.501 54.0498C60.0414 54.0498 57.687 53.2748 55.693 51.8076C55.3782 51.5764 55.1924 51.2086 55.1924 50.8181V34.257C55.1924 33.8664 55.3782 33.4986 55.693 33.2675C57.687 31.8004 60.0415 31.0254 62.501 31.0254C68.8483 31.0254 74.0129 36.1898 74.0129 42.5376C74.0127 48.8852 68.8483 54.0498 62.501 54.0498ZM57.6496 50.172C59.1055 51.103 60.7704 51.5926 62.501 51.5926C67.4937 51.5926 71.5557 47.5306 71.5557 42.5376C71.5557 37.5444 67.4935 33.4824 62.501 33.4824C60.7705 33.4824 59.1057 33.9718 57.6496 34.903V50.172Z" fill="white"/>
</svg>
