<svg width="44" height="44" viewBox="0 0 44 44" fill="none" xmlns="http://www.w3.org/2000/svg">
<circle cx="22" cy="22" r="22" fill="#0D7377"/>
<path fill-rule="evenodd" clip-rule="evenodd" d="M26.5572 26.5867C26.5529 26.6183 26.549 26.6502 26.5455 26.6823C26.292 28.9851 26.9097 31.6771 28.3128 34.5297H17.6093C17.1809 32.1304 15.7349 31.2129 13.2714 31.7699C11.6255 32.0555 10.8222 31.827 10.858 31.0808C10.8473 29.924 10.6509 29.5028 10.351 29.2814C9.69047 28.7709 10.4259 28.1176 11.1828 27.7069C10.5473 27.657 9.72972 27.1464 9.90826 26.7358C10.1867 25.7754 10.0546 25.3863 9.61909 25.1614C8.77651 24.7472 8.60154 24.2224 9.10494 23.5797C9.6869 22.9478 10.1475 22.3088 10.4867 21.6554C10.8008 21.0556 10.9151 20.4594 10.8473 19.7846C10.8151 19.474 10.8008 19.1598 10.8008 18.8385C10.8008 13.6652 14.9923 9.47021 20.1655 9.47021C21.2959 9.47021 22.3793 9.67022 23.3824 10.0367C23.193 10.1139 23.0073 10.1999 22.8256 10.2946L22.1411 9.99025C21.809 9.84256 21.4202 9.9147 21.1631 10.1718L19.8806 11.4543C19.6235 11.7113 19.5514 12.1001 19.699 12.4323L20.0034 13.1167C19.8258 13.4577 19.6783 13.8132 19.5623 14.1801L18.8635 14.4491C18.5244 14.5796 18.3006 14.9055 18.3006 15.2689V17.083C18.3006 17.4464 18.5244 17.7723 18.8635 17.9029L19.5626 18.1719C19.6786 18.5381 19.8258 18.8935 20.0033 19.2338C20.0032 19.2338 19.699 19.9178 19.699 19.9178C19.5514 20.25 19.6235 20.6388 19.8806 20.8959L21.1631 22.1784C21.4198 22.4351 21.808 22.5074 22.14 22.3604L22.8257 22.0567C23.0959 22.1972 23.3753 22.3191 23.6623 22.4213C23.999 24.1808 25.0771 25.6825 26.5572 26.5867ZM23.5541 21.4329C23.3198 21.3289 23.0924 21.2092 22.8731 21.0749L21.7842 21.5572L20.5017 20.2747L20.9859 19.1858C20.6661 18.6688 20.4323 18.1025 20.2898 17.5106L19.179 17.083V15.2689L20.2898 14.8414C20.4323 14.2476 20.6661 13.6831 20.9859 13.1643L20.5017 12.0754L21.7842 10.7929L22.8731 11.277C23.392 10.9573 23.9565 10.7235 24.5484 10.5828L24.9777 9.47021H26.7919L27.2193 10.5828C27.8113 10.7235 28.3758 10.9573 28.8947 11.277L29.9835 10.7929L31.266 12.0754L30.7837 13.1643C31.1034 13.6831 31.3373 14.2476 31.4779 14.8414L32.5887 15.2689V15.6518C31.7493 15.2317 30.8032 14.995 29.8035 14.995C29.4797 14.995 29.1615 15.0198 28.8508 15.0677C28.4017 13.8659 27.2426 13.0108 25.8839 13.0108C24.1355 13.0108 22.7196 14.4267 22.7196 16.1751C22.7196 17.2466 23.2515 18.194 24.0658 18.7668C23.7349 19.5279 23.5514 20.3667 23.5514 21.2471C23.5514 21.3092 23.5523 21.3712 23.5541 21.4329ZM29.8035 26.6208C26.8437 26.6208 24.4298 24.2069 24.4298 21.2471C24.4298 18.2873 26.8437 15.8734 29.8035 15.8734C32.7633 15.8734 35.1772 18.2873 35.1772 21.2471C35.1772 24.2069 32.7633 26.6208 29.8035 26.6208ZM29.8035 16.1843C27.0067 16.1843 24.7407 18.4503 24.7407 21.2471C24.7407 24.0439 27.0067 26.3099 29.8035 26.3099C32.6003 26.3099 34.8663 24.0439 34.8663 21.2471C34.8663 18.4503 32.6003 16.1843 29.8035 16.1843ZM29.8035 17.0627C32.115 17.0627 33.9879 18.9356 33.9879 21.2471C33.9879 23.5586 32.115 25.4315 29.8035 25.4315C27.492 25.4315 25.6191 23.5586 25.6191 21.2471C25.6191 18.9356 27.492 17.0627 29.8035 17.0627ZM33.1361 20.8079H32.7743C32.5318 20.8079 32.3351 21.0047 32.3351 21.2471C32.3351 21.4895 32.5318 21.6863 32.7743 21.6863H33.1361C33.3786 21.6863 33.5753 21.4895 33.5753 21.2471C33.5753 21.0047 33.3786 20.8079 33.1361 20.8079ZM30.2427 24.5785V24.2178C30.2427 23.9754 30.0459 23.7786 29.8035 23.7786C29.5611 23.7786 29.3643 23.9754 29.3643 24.2178V24.5785C29.3643 24.8209 29.5611 25.0177 29.8035 25.0177C30.0459 25.0177 30.2427 24.8209 30.2427 24.5785ZM29.3643 19.6642V21.2471C29.3643 21.404 29.448 21.549 29.5839 21.6275L30.6416 22.2379C30.8515 22.3592 31.1204 22.2871 31.2416 22.0771C31.3627 21.8672 31.2907 21.5983 31.0807 21.4772L30.2427 20.9935V19.6642C30.2427 19.4218 30.0459 19.225 29.8035 19.225C29.5611 19.225 29.3643 19.4218 29.3643 19.6642ZM31.8496 18.5799L31.5937 18.8358C31.4223 19.0072 31.4223 19.2855 31.5937 19.4569C31.7651 19.6283 32.0434 19.6283 32.2148 19.4569L32.4707 19.201C32.6421 19.0296 32.6421 18.7513 32.4707 18.5799C32.2993 18.4085 32.021 18.4085 31.8496 18.5799ZM26.4721 21.6863H26.8328C27.0752 21.6863 27.272 21.4895 27.272 21.2471C27.272 21.0047 27.0752 20.8079 26.8328 20.8079H26.4721C26.2297 20.8079 26.0329 21.0047 26.0329 21.2471C26.0329 21.4895 26.2297 21.6863 26.4721 21.6863ZM27.1363 19.201L27.3922 19.4569C27.5636 19.6283 27.8419 19.6283 28.0133 19.4569C28.1847 19.2855 28.1847 19.0072 28.0133 18.8358L27.7574 18.5799C27.586 18.4085 27.3077 18.4085 27.1363 18.5799C26.9649 18.7513 26.9649 19.0296 27.1363 19.201ZM32.4707 23.2932L32.2148 23.0373C32.0434 22.8659 31.7651 22.8659 31.5937 23.0373C31.4223 23.2087 31.4223 23.487 31.5937 23.6584L31.8496 23.9143C32.021 24.0857 32.2993 24.0857 32.4707 23.9143C32.6421 23.7429 32.6421 23.4646 32.4707 23.2932ZM27.7574 23.9143L28.0133 23.6584C28.1847 23.487 28.1847 23.2087 28.0133 23.0373C27.8419 22.8659 27.5636 22.8659 27.3922 23.0373L27.1363 23.2932C26.9649 23.4646 26.9649 23.7429 27.1363 23.9143C27.3077 24.0857 27.586 24.0857 27.7574 23.9143ZM29.3643 17.9157V18.2763C29.3643 18.5188 29.5611 18.7155 29.8035 18.7155C30.0459 18.7155 30.2427 18.5188 30.2427 18.2763V17.9157C30.2427 17.6732 30.0459 17.4765 29.8035 17.4765C29.5611 17.4765 29.3643 17.6732 29.3643 17.9157Z" fill="white"/>
</svg>
