<svg width="81" height="81" viewBox="0 0 81 81" fill="none" xmlns="http://www.w3.org/2000/svg">
<path d="M38.25 14.625H24.75C24.4516 14.625 24.1655 14.5065 23.9545 14.2955C23.7435 14.0845 23.625 13.7984 23.625 13.5C23.625 13.2016 23.7435 12.9155 23.9545 12.7045C24.1655 12.4935 24.4516 12.375 24.75 12.375H38.25C38.5484 12.375 38.8345 12.4935 39.0455 12.7045C39.2565 12.9155 39.375 13.2016 39.375 13.5C39.375 13.7984 39.2565 14.0845 39.0455 14.2955C38.8345 14.5065 38.5484 14.625 38.25 14.625Z" fill="white"/>
<path d="M68.625 74.25H12.375C10.8837 74.2482 9.454 73.655 8.3995 72.6005C7.34499 71.546 6.75179 70.1163 6.75 68.625V18C6.75179 16.5087 7.34499 15.079 8.3995 14.0245C9.454 12.97 10.8837 12.3768 12.375 12.375H20.25C20.5484 12.375 20.8345 12.4935 21.0455 12.7045C21.2565 12.9155 21.375 13.2016 21.375 13.5C21.375 13.7984 21.2565 14.0845 21.0455 14.2955C20.8345 14.5065 20.5484 14.625 20.25 14.625H12.375C11.4799 14.625 10.6214 14.9806 9.98851 15.6135C9.35558 16.2464 9 17.1049 9 18V68.625C9 69.5201 9.35558 70.3785 9.98851 71.0115C10.6214 71.6444 11.4799 72 12.375 72H68.625C69.5201 72 70.3785 71.6444 71.0115 71.0115C71.6444 70.3785 72 69.5201 72 68.625V18C72 17.1049 71.6444 16.2464 71.0115 15.6135C70.3785 14.9806 69.5201 14.625 68.625 14.625H60.75C60.4516 14.625 60.1655 14.5065 59.9545 14.2955C59.7435 14.0845 59.625 13.7984 59.625 13.5C59.625 13.2016 59.7435 12.9155 59.9545 12.7045C60.1655 12.4935 60.4516 12.375 60.75 12.375H68.625C70.1163 12.3768 71.546 12.97 72.6005 14.0245C73.655 15.079 74.2482 16.5087 74.25 18V68.625C74.2482 70.1163 73.655 71.546 72.6005 72.6005C71.546 73.655 70.1163 74.2482 68.625 74.25Z" fill="white"/>
<path d="M56.25 14.625H42.75C42.4516 14.625 42.1655 14.5065 41.9545 14.2955C41.7435 14.0845 41.625 13.7984 41.625 13.5C41.625 13.2016 41.7435 12.9155 41.9545 12.7045C42.1655 12.4935 42.4516 12.375 42.75 12.375H56.25C56.5484 12.375 56.8345 12.4935 57.0455 12.7045C57.2565 12.9155 57.375 13.2016 57.375 13.5C57.375 13.7984 57.2565 14.0845 57.0455 14.2955C56.8345 14.5065 56.5484 14.625 56.25 14.625Z" fill="white"/>
<path d="M38.25 14.625H24.75C24.4516 14.625 24.1655 14.5065 23.9545 14.2955C23.7435 14.0845 23.625 13.7984 23.625 13.5C23.625 13.2016 23.7435 12.9155 23.9545 12.7045C24.1655 12.4935 24.4516 12.375 24.75 12.375H38.25C38.5484 12.375 38.8345 12.4935 39.0455 12.7045C39.2565 12.9155 39.375 13.2016 39.375 13.5C39.375 13.7984 39.2565 14.0845 39.0455 14.2955C38.8345 14.5065 38.5484 14.625 38.25 14.625Z" fill="white"/>
<path d="M57.7575 69.75H12.375C10.8837 69.7482 9.454 69.155 8.3995 68.1005C7.34499 67.046 6.75179 65.6163 6.75 64.125V18C6.75179 16.5087 7.34499 15.079 8.3995 14.0245C9.454 12.97 10.8837 12.3768 12.375 12.375H20.25C20.5484 12.375 20.8345 12.4935 21.0455 12.7045C21.2565 12.9155 21.375 13.2016 21.375 13.5C21.375 13.7984 21.2565 14.0845 21.0455 14.2955C20.8345 14.5065 20.5484 14.625 20.25 14.625H12.375C11.4799 14.625 10.6214 14.9806 9.98851 15.6135C9.35558 16.2464 9 17.1049 9 18V64.125C9 65.0201 9.35558 65.8785 9.98851 66.5115C10.6214 67.1444 11.4799 67.5 12.375 67.5H57.7575C58.6524 67.4981 59.5105 67.1436 60.1459 66.5134L71.0134 55.6459C71.6436 55.0105 71.9981 54.1524 72 53.2575V18C72 17.1049 71.6444 16.2464 71.0115 15.6135C70.3785 14.9806 69.5201 14.625 68.625 14.625H60.75C60.4516 14.625 60.1655 14.5065 59.9545 14.2955C59.7435 14.0845 59.625 13.7984 59.625 13.5C59.625 13.2016 59.7435 12.9155 59.9545 12.7045C60.1655 12.4935 60.4516 12.375 60.75 12.375H68.625C70.1163 12.3768 71.546 12.97 72.6005 14.0245C73.655 15.079 74.2482 16.5087 74.25 18V53.2575C74.2466 54.7488 73.6552 56.1786 72.6041 57.2366L61.7366 68.1041C60.6786 69.1552 59.2488 69.7466 57.7575 69.75Z" fill="white"/>
<path d="M56.25 14.625H42.75C42.4516 14.625 42.1655 14.5065 41.9545 14.2955C41.7435 14.0845 41.625 13.7984 41.625 13.5C41.625 13.2016 41.7435 12.9155 41.9545 12.7045C42.1655 12.4935 42.4516 12.375 42.75 12.375H56.25C56.5484 12.375 56.8345 12.4935 57.0455 12.7045C57.2565 12.9155 57.375 13.2016 57.375 13.5C57.375 13.7984 57.2565 14.0845 57.0455 14.2955C56.8345 14.5065 56.5484 14.625 56.25 14.625Z" fill="white"/>
<path d="M59.625 69.345C59.3266 69.345 59.0405 69.2265 58.8295 69.0155C58.6185 68.8045 58.5 68.5184 58.5 68.22V58.9838C58.5015 57.6624 59.027 56.3957 59.9613 55.4613C60.8957 54.527 62.1624 54.0015 63.4838 54H72.72C73.0184 54 73.3045 54.1185 73.5155 54.3295C73.7265 54.5405 73.845 54.8266 73.845 55.125C73.845 55.4234 73.7265 55.7095 73.5155 55.9205C73.3045 56.1315 73.0184 56.25 72.72 56.25H63.4838C62.759 56.2509 62.0642 56.5392 61.5517 57.0517C61.0392 57.5642 60.7509 58.259 60.75 58.9838V68.22C60.75 68.5184 60.6315 68.8045 60.4205 69.0155C60.2095 69.2265 59.9234 69.345 59.625 69.345Z" fill="white"/>
<path d="M38.25 14.625H24.75C24.4516 14.625 24.1655 14.5065 23.9545 14.2955C23.7435 14.0845 23.625 13.7984 23.625 13.5C23.625 13.2016 23.7435 12.9155 23.9545 12.7045C24.1655 12.4935 24.4516 12.375 24.75 12.375H38.25C38.5484 12.375 38.8345 12.4935 39.0455 12.7045C39.2565 12.9155 39.375 13.2016 39.375 13.5C39.375 13.7984 39.2565 14.0845 39.0455 14.2955C38.8345 14.5065 38.5484 14.625 38.25 14.625Z" fill="white"/>
<path d="M74.25 28.125H6.75V18C6.75179 16.5087 7.34499 15.079 8.3995 14.0245C9.454 12.97 10.8837 12.3768 12.375 12.375H20.25C20.5484 12.375 20.8345 12.4935 21.0455 12.7045C21.2565 12.9155 21.375 13.2016 21.375 13.5C21.375 13.7984 21.2565 14.0845 21.0455 14.2955C20.8345 14.5065 20.5484 14.625 20.25 14.625H12.375C11.4799 14.625 10.6214 14.9806 9.98851 15.6135C9.35558 16.2464 9 17.1049 9 18V25.875H72V18C72 17.1049 71.6444 16.2464 71.0115 15.6135C70.3785 14.9806 69.5201 14.625 68.625 14.625H60.75C60.4516 14.625 60.1655 14.5065 59.9545 14.2955C59.7435 14.0845 59.625 13.7984 59.625 13.5C59.625 13.2016 59.7435 12.9155 59.9545 12.7045C60.1655 12.4935 60.4516 12.375 60.75 12.375H68.625C70.1163 12.3768 71.546 12.97 72.6005 14.0245C73.655 15.079 74.2482 16.5087 74.25 18V28.125Z" fill="white"/>
<path d="M56.25 14.625H42.75C42.4516 14.625 42.1655 14.5065 41.9545 14.2955C41.7435 14.0845 41.625 13.7984 41.625 13.5C41.625 13.2016 41.7435 12.9155 41.9545 12.7045C42.1655 12.4935 42.4516 12.375 42.75 12.375H56.25C56.5484 12.375 56.8345 12.4935 57.0455 12.7045C57.2565 12.9155 57.375 13.2016 57.375 13.5C57.375 13.7984 57.2565 14.0845 57.0455 14.2955C56.8345 14.5065 56.5484 14.625 56.25 14.625Z" fill="white"/>
<path d="M40.5 20.25C39.6049 20.25 38.7465 19.8944 38.1135 19.2615C37.4806 18.6286 37.125 17.7701 37.125 16.875V10.125C37.125 9.22989 37.4806 8.37145 38.1135 7.73851C38.7465 7.10558 39.6049 6.75 40.5 6.75C41.3951 6.75 42.2535 7.10558 42.8865 7.73851C43.5194 8.37145 43.875 9.22989 43.875 10.125V16.875C43.875 17.7701 43.5194 18.6286 42.8865 19.2615C42.2535 19.8944 41.3951 20.25 40.5 20.25ZM40.5 9C40.2016 9 39.9155 9.11853 39.7045 9.3295C39.4935 9.54048 39.375 9.82663 39.375 10.125V16.875C39.375 17.1734 39.4935 17.4595 39.7045 17.6705C39.9155 17.8815 40.2016 18 40.5 18C40.7984 18 41.0845 17.8815 41.2955 17.6705C41.5065 17.4595 41.625 17.1734 41.625 16.875V10.125C41.625 9.82663 41.5065 9.54048 41.2955 9.3295C41.0845 9.11853 40.7984 9 40.5 9Z" fill="white"/>
<path d="M22.5 20.25C21.6049 20.25 20.7464 19.8944 20.1135 19.2615C19.4806 18.6286 19.125 17.7701 19.125 16.875V10.125C19.125 9.22989 19.4806 8.37145 20.1135 7.73851C20.7464 7.10558 21.6049 6.75 22.5 6.75C23.3951 6.75 24.2536 7.10558 24.8865 7.73851C25.5194 8.37145 25.875 9.22989 25.875 10.125V16.875C25.875 17.7701 25.5194 18.6286 24.8865 19.2615C24.2536 19.8944 23.3951 20.25 22.5 20.25ZM22.5 9C22.2016 9 21.9155 9.11853 21.7045 9.3295C21.4935 9.54048 21.375 9.82663 21.375 10.125V16.875C21.375 17.1734 21.4935 17.4595 21.7045 17.6705C21.9155 17.8815 22.2016 18 22.5 18C22.7984 18 23.0845 17.8815 23.2955 17.6705C23.5065 17.4595 23.625 17.1734 23.625 16.875V10.125C23.625 9.82663 23.5065 9.54048 23.2955 9.3295C23.0845 9.11853 22.7984 9 22.5 9Z" fill="white"/>
<path d="M58.5 20.25C57.6049 20.25 56.7465 19.8944 56.1135 19.2615C55.4806 18.6286 55.125 17.7701 55.125 16.875V10.125C55.125 9.22989 55.4806 8.37145 56.1135 7.73851C56.7465 7.10558 57.6049 6.75 58.5 6.75C59.3951 6.75 60.2535 7.10558 60.8865 7.73851C61.5194 8.37145 61.875 9.22989 61.875 10.125V16.875C61.875 17.7701 61.5194 18.6286 60.8865 19.2615C60.2535 19.8944 59.3951 20.25 58.5 20.25ZM58.5 9C58.2016 9 57.9155 9.11853 57.7045 9.3295C57.4935 9.54048 57.375 9.82663 57.375 10.125V16.875C57.375 17.1734 57.4935 17.4595 57.7045 17.6705C57.9155 17.8815 58.2016 18 58.5 18C58.7984 18 59.0845 17.8815 59.2955 17.6705C59.5065 17.4595 59.625 17.1734 59.625 16.875V10.125C59.625 9.82663 59.5065 9.54048 59.2955 9.3295C59.0845 9.11853 58.7984 9 58.5 9Z" fill="white"/>
<path d="M40.4995 65.25C37.9366 65.2511 35.407 64.6684 33.1028 63.5461C30.7986 62.4238 28.7804 60.7914 27.2011 58.7728C25.6219 56.7541 24.5233 54.4023 23.9885 51.8957C23.4538 49.3892 23.4971 46.7937 24.115 44.3064C24.733 41.819 25.9094 39.5051 27.555 37.5402C29.2005 35.5753 31.2721 34.011 33.6124 32.9661C35.9527 31.9212 38.5003 31.4231 41.0618 31.5096C43.6233 31.5961 46.1314 32.265 48.3959 33.4654C48.5292 33.533 48.6477 33.6266 48.7445 33.7405C48.8413 33.8545 48.9143 33.9866 48.9594 34.1292C49.0045 34.2717 49.0208 34.4218 49.0072 34.5707C48.9937 34.7196 48.9505 34.8643 48.8804 34.9963C48.8103 35.1284 48.7145 35.2451 48.5988 35.3397C48.483 35.4343 48.3495 35.5049 48.2062 35.5474C48.0628 35.5898 47.9124 35.6032 47.7638 35.5869C47.6152 35.5705 47.4714 35.5247 47.3407 35.4521C44.2439 33.8117 40.6613 33.3371 37.2442 34.1145C33.8271 34.892 30.8025 36.8698 28.7202 39.6885C26.6379 42.5071 25.6362 45.9795 25.8973 49.4741C26.1584 52.9688 27.6648 56.2537 30.1428 58.7317C32.6208 61.2097 35.9057 62.7162 39.4004 62.9772C42.8951 63.2383 46.3674 62.2366 49.1861 60.1544C52.0047 58.0721 53.9826 55.0474 54.76 51.6303C55.5374 48.2132 55.0628 44.6306 53.4224 41.5339C53.289 41.271 53.2642 40.9664 53.3531 40.6854C53.442 40.4044 53.6376 40.1695 53.8979 40.0313C54.1582 39.893 54.4624 39.8625 54.745 39.9461C55.0276 40.0298 55.2661 40.221 55.4091 40.4786C56.7723 43.0497 57.4471 45.9296 57.3681 48.8386C57.2891 51.7476 56.459 54.5866 54.9583 57.0799C53.4576 59.5732 51.3375 61.6358 48.8039 63.0675C46.2704 64.4991 43.4096 65.2509 40.4995 65.25Z" fill="white"/>
<path d="M40.5004 54C39.0453 53.9905 37.6506 53.4175 36.609 52.4014C35.5675 51.3853 34.9603 50.0051 34.9149 48.5507C34.8694 47.0964 35.3893 45.681 36.3654 44.6018C37.3415 43.5227 38.6978 42.8638 40.1494 42.7635C40.4477 42.7448 40.7413 42.8455 40.9655 43.0433C41.1896 43.2411 41.326 43.5198 41.3447 43.8182C41.3633 44.1165 41.2627 44.4101 41.0649 44.6343C40.8671 44.8584 40.5884 44.9948 40.29 45.0135C39.6415 45.0535 39.0183 45.2799 38.4953 45.6654C37.9722 46.051 37.5716 46.5793 37.3415 47.1869C37.1114 47.7946 37.0617 48.4558 37.1981 49.091C37.3346 49.7263 37.6516 50.3087 38.111 50.7682C38.5704 51.2277 39.1526 51.5449 39.7878 51.6816C40.4231 51.8182 41.0842 51.7687 41.692 51.5388C42.2997 51.3089 42.8282 50.9084 43.2139 50.3855C43.5996 49.8626 43.8261 49.2395 43.8664 48.591C43.8756 48.4433 43.9138 48.2988 43.9789 48.1658C44.044 48.0329 44.1346 47.914 44.2456 47.8161C44.3566 47.7182 44.4858 47.643 44.6258 47.595C44.7658 47.547 44.9139 47.5271 45.0617 47.5363C45.2094 47.5455 45.3539 47.5838 45.4868 47.6488C45.6198 47.7139 45.7386 47.8045 45.8366 47.9155C45.9345 48.0265 46.0096 48.1557 46.0576 48.2957C46.1056 48.4358 46.1256 48.5839 46.1164 48.7316C46.0238 50.1586 45.3921 51.4969 44.3492 52.4753C43.3063 53.4536 41.9303 53.9987 40.5004 54Z" fill="white"/>
<path d="M40.5004 59.625C38.8116 59.6252 37.1444 59.2452 35.6225 58.5131C34.1006 57.7811 32.763 56.7158 31.709 55.3963C30.655 54.0768 29.9116 52.5369 29.5339 50.8909C29.1563 49.2448 29.154 47.5349 29.5274 45.8879C29.9007 44.2409 30.6401 42.6991 31.6906 41.3768C32.7412 40.0545 34.0759 38.9857 35.5959 38.2497C37.1159 37.5137 38.782 37.1293 40.4708 37.125C42.1596 37.1208 43.8277 37.4968 45.3514 38.2253C45.6025 38.3643 45.791 38.5941 45.8782 38.8675C45.9654 39.141 45.9449 39.4375 45.8206 39.6963C45.6964 39.9551 45.478 40.1566 45.21 40.2596C44.9421 40.3626 44.6449 40.3592 44.3794 40.2503C43.1688 39.6701 41.8428 39.3709 40.5004 39.375C38.7203 39.375 36.9803 39.9028 35.5002 40.8918C34.0202 41.8807 32.8666 43.2863 32.1854 44.9309C31.5042 46.5754 31.326 48.385 31.6733 50.1308C32.0205 51.8766 32.8777 53.4803 34.1364 54.739C35.3951 55.9976 36.9987 56.8548 38.7445 57.2021C40.4904 57.5493 42.3 57.3711 43.9445 56.6899C45.589 56.0087 46.9946 54.8552 47.9836 53.3751C48.9725 51.8951 49.5004 50.155 49.5004 48.375C49.5031 47.0322 49.2023 45.7062 48.6206 44.496C48.5464 44.3619 48.5003 44.2141 48.4853 44.0616C48.4702 43.9091 48.4865 43.7552 48.533 43.6092C48.5796 43.4632 48.6555 43.3282 48.7561 43.2126C48.8567 43.097 48.9798 43.0032 49.118 42.9369C49.2561 42.8705 49.4064 42.8332 49.5595 42.827C49.7126 42.8208 49.8654 42.846 50.0084 42.901C50.1515 42.9559 50.2818 43.0396 50.3913 43.1467C50.5009 43.2538 50.5874 43.3822 50.6456 43.524C51.465 45.2385 51.8367 47.1326 51.7262 49.0296C51.6156 50.9266 51.0263 52.7647 50.0133 54.3724C49.0003 55.98 47.5966 57.3049 45.9331 58.2235C44.2696 59.142 42.4006 59.6241 40.5004 59.625Z" fill="white"/>
<path d="M55.8234 38.9486C55.7597 38.9484 55.6961 38.9431 55.6332 38.9329L51.5596 38.2342C51.3301 38.195 51.1185 38.0855 50.9539 37.9209C50.7893 37.7562 50.6798 37.5446 50.6405 37.3151L49.9419 33.2415C49.9115 33.0641 49.9242 32.882 49.9788 32.7105C50.0335 32.5391 50.1284 32.3832 50.2557 32.256L53.6307 28.881C53.7766 28.7351 53.9597 28.632 54.1602 28.5832C54.3606 28.5343 54.5706 28.5416 54.7672 28.604C54.9638 28.6665 55.1395 28.7819 55.275 28.9375C55.4104 29.0931 55.5005 29.2829 55.5354 29.4862L56.0979 32.7757L59.3874 33.3382C59.5907 33.3731 59.7806 33.4632 59.9361 33.5986C60.0917 33.7341 60.2071 33.9098 60.2696 34.1064C60.332 34.303 60.3393 34.513 60.2904 34.7135C60.2416 34.9139 60.1385 35.097 59.9926 35.2429L56.6176 38.6179C56.4071 38.829 56.1215 38.948 55.8234 38.9486ZM52.724 36.1507L55.4397 36.6165L56.8662 35.19L54.9346 34.8592C54.7051 34.82 54.4935 34.7105 54.3289 34.5459C54.1643 34.3812 54.0548 34.1696 54.0155 33.9401L53.6847 32.0085L52.2582 33.435L52.724 36.1507Z" fill="white"/>
<path d="M40.4998 49.5C40.2773 49.4999 40.0598 49.4339 39.8749 49.3103C39.6899 49.1867 39.5458 49.011 39.4606 48.8055C39.3755 48.5999 39.3532 48.3738 39.3966 48.1556C39.44 47.9374 39.5471 47.7369 39.7044 47.5796L50.9544 36.3296C51.1666 36.1247 51.4507 36.0113 51.7457 36.0138C52.0407 36.0164 52.3228 36.1347 52.5314 36.3433C52.74 36.5519 52.8583 36.834 52.8609 37.129C52.8635 37.424 52.7501 37.7082 52.5451 37.9203L41.2951 49.1703C41.0842 49.3813 40.7981 49.4999 40.4998 49.5Z" fill="white"/>
</svg>
