<svg width="81" height="81" viewBox="0 0 81 81" fill="none" xmlns="http://www.w3.org/2000/svg">
<g clip-path="url(#clip0_217_180)">
<path d="M70.875 64.5469H64.5469C63.8476 64.5469 63.2812 65.1132 63.2812 65.8125C63.2812 66.5118 63.8476 67.0781 64.5469 67.0781H67.6065C60.4858 74.3333 50.6962 78.4687 40.5 78.4687C19.5634 78.4687 2.53125 61.4366 2.53125 40.5C2.53125 33.4062 4.50404 26.4848 8.23447 20.4841C8.60309 19.8909 8.42115 19.1093 7.82789 18.7407C7.23463 18.3721 6.45311 18.5541 6.08449 19.1473C2.1041 25.5498 0 32.9331 0 40.5C0 51.3179 4.21295 61.4888 11.8621 69.1379C19.5112 76.787 29.6821 81 40.5 81C46.3266 81 51.9507 79.7882 57.2157 77.3993C61.8859 75.2794 66.0482 72.34 69.6094 68.6522V72.1406C69.6094 72.8399 70.1757 73.4062 70.875 73.4062C71.5743 73.4062 72.1406 72.8399 72.1406 72.1406V65.8125C72.1406 65.1132 71.5743 64.5469 70.875 64.5469Z" fill="white"/>
<path d="M69.1379 11.8621C61.4888 4.21295 51.3179 0 40.5 0C34.6734 0 29.0493 1.21184 23.7843 3.6007C19.1141 5.72062 14.9518 8.66004 11.3906 12.3478V8.85938C11.3906 8.16012 10.8243 7.59375 10.125 7.59375C9.42574 7.59375 8.85938 8.16012 8.85938 8.85938V15.1875C8.85938 15.8868 9.42574 16.4531 10.125 16.4531H16.4531C17.1524 16.4531 17.7188 15.8868 17.7188 15.1875C17.7188 14.4882 17.1524 13.9219 16.4531 13.9219H13.3935C20.5142 6.66668 30.3038 2.53125 40.5 2.53125C61.4366 2.53125 78.4688 19.5634 78.4688 40.5C78.4688 47.5938 76.496 54.5152 72.7655 60.5159C72.3969 61.1091 72.5788 61.8906 73.1721 62.2593C73.3809 62.389 73.6103 62.4507 73.8397 62.4507C74.2621 62.4507 74.6766 62.2387 74.9155 61.8527C78.8959 55.4502 81 48.0669 81 40.5C81 29.6821 76.787 19.5112 69.1379 11.8621Z" fill="white"/>
<path d="M40.5 20.25C32.1263 20.25 25.3125 27.0638 25.3125 35.4375C25.3125 40.5411 26.8977 43.6783 28.2978 46.4484C29.4131 48.6538 30.375 50.5601 30.375 53.1562C30.375 56.575 29.2518 58.899 29.2423 58.918C29.0461 59.3103 29.0667 59.7771 29.2976 60.1488C29.5286 60.5222 29.9352 60.7484 30.375 60.7484H45.5625C46.2618 60.7484 46.8281 60.182 46.8281 59.4828V55.6859H53.1562C53.8555 55.6859 54.4219 55.1195 54.4219 54.4203V47.7394L57.3534 46.7617C58.0163 46.5402 58.3754 45.8235 58.1539 45.1607L55.6875 37.7615V35.4359C55.6875 27.0622 48.8737 20.2484 40.5 20.2484V20.25ZM52.756 45.6274C52.2387 45.7998 51.8906 46.2839 51.8906 46.8281V53.1562H45.5625C44.8632 53.1562 44.2969 53.7226 44.2969 54.4219V58.2187H32.188C32.544 57.0085 32.9062 55.2603 32.9062 53.1562C32.9062 49.9558 31.7656 47.6982 30.5569 45.3062C29.2233 42.6658 27.8438 39.9368 27.8438 35.4375C27.8438 28.4592 33.5217 22.7812 40.5 22.7812C47.4783 22.7812 53.1562 28.4592 53.1562 35.4375V37.9687C53.1562 38.1048 53.1784 38.2393 53.2211 38.369L55.3521 44.762L52.756 45.6274Z" fill="white"/>
<path d="M40.5 25.3125C34.917 25.3125 30.375 29.8545 30.375 35.4375C30.375 41.0205 34.917 45.5625 40.5 45.5625C46.083 45.5625 50.625 41.0205 50.625 35.4375C50.625 29.8545 46.083 25.3125 40.5 25.3125ZM40.5 43.0312C36.3124 43.0312 32.9062 39.6251 32.9062 35.4375C32.9062 31.2499 36.3124 27.8438 40.5 27.8438C44.6876 27.8438 48.0938 31.2499 48.0938 35.4375C48.0938 39.6251 44.6876 43.0312 40.5 43.0312Z" fill="white"/>
<path d="M40.5 29.1094C39.8007 29.1094 39.2344 29.6757 39.2344 30.375V34.1719H36.7031C36.0039 34.1719 35.4375 34.7382 35.4375 35.4375C35.4375 36.1368 36.0039 36.7031 36.7031 36.7031H40.5C41.1993 36.7031 41.7656 36.1368 41.7656 35.4375V30.375C41.7656 29.6757 41.1993 29.1094 40.5 29.1094Z" fill="white"/>
</g>
<defs>
<clipPath id="clip0_217_180">
<rect width="81" height="81" fill="white"/>
</clipPath>
</defs>
</svg>
