<svg width="81" height="81" viewBox="0 0 81 81" fill="none" xmlns="http://www.w3.org/2000/svg">
<path d="M74.2046 57.3011C74.7476 51.1191 72.0692 46.3054 67.8411 40.5022C69.9897 37.9004 76.2234 27.7139 72.9671 27.0359C72.8045 27.001 72.6367 26.9986 72.4732 27.0286C72.3096 27.0586 72.1536 27.1206 72.0141 27.211C71.8745 27.3013 71.7541 27.4183 71.6598 27.5552C71.5654 27.6922 71.499 27.8463 71.4643 28.0089C70.4646 31.8314 68.6711 35.4004 66.2006 38.4838C64.4387 36.4152 62.5416 34.4658 60.5217 32.6483C59.8091 27.2697 58.101 22.071 55.4847 17.3179C60.2758 16.6546 64.0309 16.5872 67.805 18.4513C67.4128 19.292 67.304 20.2372 67.4951 21.1449C67.6862 22.0527 68.1668 22.8739 68.8647 23.485C69.5625 24.0962 70.4399 24.4643 71.3649 24.534C72.2899 24.6037 73.2126 24.3713 73.9942 23.8716C74.7757 23.372 75.374 22.6321 75.699 21.7633C76.024 20.8944 76.0582 19.9436 75.7964 19.0536C75.5346 18.1637 74.991 17.3828 74.2473 16.8283C73.5037 16.2739 72.6001 15.9758 71.6724 15.9789C70.9301 15.9835 70.202 16.1833 69.5613 16.5582C68.1707 15.7138 66.64 15.1253 65.0419 14.8205C61.3928 14.1623 57.6501 14.2251 54.0251 15.0052C50.4067 9.80646 45.6797 6.64636 40.5096 6.64636C35.3395 6.64636 30.6128 9.80631 26.9944 15.0049C24.1867 14.4639 14.3542 13.3494 15.0037 16.3224C15.0381 16.4852 15.1043 16.6396 15.1985 16.7767C15.2927 16.9138 15.4131 17.031 15.5528 17.1214C15.6924 17.2118 15.8486 17.2738 16.0122 17.3037C16.1759 17.3335 16.3439 17.3308 16.5065 17.2955C19.4928 16.7607 22.5511 16.7682 25.5348 17.3176C22.9186 22.0705 21.2104 27.2692 20.4976 32.6476C18.4779 34.4657 16.5808 36.4155 14.8187 38.4843C11.386 33.6046 8.93611 29.3918 9.34628 24.5463C10.3752 24.5554 11.3737 24.1972 12.1621 23.5359C12.9504 22.8746 13.4769 21.9537 13.6469 20.9388C13.8169 19.9239 13.6191 18.8817 13.0892 17.9997C12.5593 17.1176 11.7321 16.4536 10.7563 16.127C9.78045 15.8005 8.72014 15.8329 7.76607 16.2183C6.812 16.6038 6.02679 17.317 5.55168 18.2298C5.07658 19.1425 4.94276 20.1949 5.17431 21.1975C5.40586 22.2001 5.98757 23.0871 6.81481 23.6991C6.29195 29.8927 8.93577 34.6801 13.1781 40.5028C10.3048 44.0038 8.22059 48.0835 7.06763 52.4634C7.00312 52.7888 7.06898 53.1266 7.25103 53.404C7.43308 53.6814 7.71677 53.8762 8.04103 53.9466C8.3653 54.0169 8.7042 53.9571 8.98481 53.78C9.26541 53.6029 9.46528 53.3228 9.54138 52.9998C10.5509 49.1774 12.3484 45.6083 14.8185 42.5215C16.58 44.5909 18.4775 46.5407 20.4983 48.3578C21.2111 53.732 22.9178 58.9267 25.5312 63.6765C20.7474 64.3437 16.991 64.402 13.2171 62.5427C13.6529 61.618 13.7434 60.568 13.4723 59.5824C13.2011 58.5968 12.5863 57.7408 11.739 57.1691C10.8917 56.5973 9.86771 56.3477 8.85231 56.4652C7.83691 56.5827 6.89708 57.0597 6.20275 57.8099C5.50842 58.5601 5.10543 59.5339 5.06664 60.5554C5.02786 61.5768 5.35583 62.5784 5.99127 63.3791C6.62671 64.1798 7.52766 64.7267 8.53123 64.9209C9.53479 65.1151 10.5747 64.9438 11.463 64.4379C16.0527 67.1467 21.6502 66.9469 26.9891 65.9876C30.6081 71.1907 35.3371 74.3537 40.5096 74.3537C45.6824 74.3537 50.4115 71.1905 54.0306 65.9871C57.6532 66.7717 61.395 66.8346 65.0419 66.1722C65.3657 66.0976 65.6471 65.8987 65.8255 65.6185C66.0039 65.3382 66.065 64.9991 65.9955 64.6742C65.926 64.3494 65.7316 64.0648 65.4542 63.882C65.1768 63.6992 64.8387 63.6329 64.5127 63.6972C61.5277 64.2319 58.4708 64.2247 55.4884 63.676C58.1014 58.9265 59.808 53.7323 60.5208 48.3585C62.5415 46.5408 64.439 44.5907 66.2008 42.521C69.7124 47.4635 71.8901 51.3779 71.7594 56.4626C70.7381 56.4386 69.7418 56.7807 68.9508 57.4272C68.1597 58.0737 67.6261 58.9818 67.4463 59.9875C67.2664 60.9932 67.4523 62.03 67.9703 62.9105C68.4883 63.7911 69.3043 64.4572 70.2707 64.7886C71.237 65.12 72.2901 65.0947 73.2394 64.7174C74.1888 64.34 74.9718 63.6355 75.447 62.7311C75.9222 61.8267 76.0581 60.7821 75.8302 59.7863C75.6024 58.7904 75.0257 57.9089 74.2046 57.3011ZM73.4237 20.2626C73.4176 20.7231 73.2304 21.1627 72.9026 21.4862C72.5748 21.8097 72.1328 21.9911 71.6722 21.9911C71.2116 21.9911 70.7696 21.8097 70.4418 21.4862C70.114 21.1626 69.9268 20.723 69.9208 20.2625C69.9268 19.802 70.114 19.3624 70.4418 19.0389C70.7696 18.7154 71.2117 18.534 71.6722 18.534C72.1328 18.534 72.5748 18.7154 72.9026 19.0389C73.2304 19.3624 73.4176 19.8021 73.4237 20.2626ZM9.34664 18.5107C9.80701 18.5172 10.2463 18.7046 10.5696 19.0324C10.8929 19.3603 11.0741 19.8022 11.0741 20.2626C11.0741 20.723 10.8928 21.1649 10.5696 21.4927C10.2463 21.8205 9.80693 22.0079 9.34656 22.0143C8.8862 22.0079 8.44687 21.8205 8.12359 21.4927C7.80032 21.1648 7.61909 20.7229 7.6191 20.2625C7.61911 19.8021 7.80036 19.3602 8.12365 19.0324C8.44693 18.7046 8.88627 18.5172 9.34664 18.5107ZM16.4278 40.5028C17.5739 39.1334 18.7909 37.8094 20.0789 36.5307C19.9859 37.8338 19.9328 39.1566 19.9328 40.5001C19.9328 41.8456 19.9861 43.1703 20.0793 44.4752C18.7946 43.201 17.5774 41.8769 16.4278 40.5028ZM7.59548 60.7376C7.60168 60.2772 7.78894 59.8377 8.11674 59.5143C8.44454 59.1909 8.8865 59.0095 9.34699 59.0095C9.80747 59.0096 10.2494 59.1909 10.5772 59.5143C10.905 59.8377 11.0922 60.2772 11.0984 60.7377C11.0922 61.1981 10.905 61.6376 10.5772 61.961C10.2494 62.2844 9.80739 62.4657 9.34691 62.4657C8.88643 62.4657 8.44447 62.2844 8.11669 61.9609C7.7889 61.6375 7.60166 61.198 7.59548 60.7376ZM57.5207 30.0632C53.1851 26.5309 48.4922 23.4615 43.5185 20.9049C46.5598 19.598 49.7125 18.5672 52.9385 17.8249C55.1475 21.6156 56.6969 25.7538 57.5207 30.0632ZM40.5096 9.17825C44.6107 9.17825 48.3945 11.5695 51.4284 15.5851C47.674 16.527 44.018 17.8247 40.51 19.4607C37.0017 17.825 33.3455 16.5272 29.591 15.585C32.6247 11.5694 36.4086 9.17825 40.5096 9.17825ZM28.0808 17.8248C31.3069 18.5673 34.4597 19.5981 37.5013 20.9049C32.5275 23.4612 27.8345 26.5303 23.4988 30.0622C24.3226 25.7531 25.8719 21.6152 28.0808 17.8248ZM23.4997 50.9428C27.8347 54.4742 32.5267 57.5433 37.4992 60.0999C34.4569 61.4035 31.3035 62.4307 28.077 63.1691C25.871 59.3817 24.3233 55.2477 23.4997 50.9428ZM40.5096 71.8219C36.407 71.8219 32.6219 69.4286 29.5874 65.4103C33.343 64.4728 37.0002 63.1782 40.5092 61.5441C44.0185 63.1781 47.6761 64.4726 51.432 65.41C48.3975 69.4284 44.6123 71.8219 40.5096 71.8219ZM52.9425 63.1687C49.7157 62.4307 46.5619 61.4037 43.5194 60.0999C45.9429 58.8583 48.3005 57.492 50.5826 56.0065C52.9822 54.442 55.2976 52.7521 57.5193 50.9438C56.6957 55.2482 55.1482 59.3817 52.9425 63.1687ZM58.1504 47.0822C52.8374 51.7693 46.9005 55.6975 40.5091 58.7548C37.5088 57.326 34.6065 55.7 31.8212 53.8875C28.6719 51.8444 25.6794 49.5692 22.8687 47.0809C22.3332 42.7115 22.333 38.2931 22.8681 33.9236C28.1814 29.2364 34.1185 25.3081 40.5101 22.2505C46.9017 25.3081 52.8386 29.237 58.1513 33.9249C58.6863 38.2943 58.686 42.7128 58.1504 47.0822ZM60.9399 44.4752C61.1331 41.8306 61.1333 39.1753 60.9404 36.5306C65.3875 41.1573 65.3748 39.854 60.9399 44.4752ZM71.6726 62.4882C71.2124 62.4816 70.7734 62.2942 70.4503 61.9665C70.1273 61.6388 69.9462 61.1972 69.9462 60.737C69.9462 60.2768 70.1273 59.8351 70.4504 59.5075C70.7735 59.1798 71.2125 58.9924 71.6726 58.9859C72.1325 58.9929 72.5711 59.1805 72.8938 59.5081C73.2164 59.8357 73.3973 60.2772 73.3973 60.737C73.3973 61.1969 73.2164 61.6383 72.8937 61.966C72.571 62.2936 72.1324 62.4812 71.6726 62.4882Z" fill="white"/>
</svg>
