<svg width="80" height="80" viewBox="0 0 80 80" fill="none" xmlns="http://www.w3.org/2000/svg">
<path d="M39.709 79.418C29.1094 79.418 19.1268 75.2889 11.6279 67.79C4.1291 60.2912 0 50.3086 0 39.709C0 29.1094 4.1291 19.1268 11.6279 11.6279C19.1268 4.1291 29.1094 0 39.709 0C50.3086 0 60.2912 4.1291 67.79 11.6279C75.2889 19.1268 79.418 29.0936 79.418 39.709C79.418 50.3086 75.2889 60.2912 67.79 67.79C60.2912 75.2889 50.3086 79.418 39.709 79.418ZM39.709 3.95508C19.9969 3.95508 3.95508 19.9969 3.95508 39.709C3.95508 59.4211 19.9969 75.4629 39.709 75.4629C59.4211 75.4629 75.4629 59.4211 75.4629 39.709C75.4629 19.9969 59.4211 3.95508 39.709 3.95508Z" fill="white"/>
<path d="M39.6298 48.6475C39.1078 48.6475 38.6015 48.4418 38.2376 48.0621L28.2708 38.0795C27.4957 37.3043 27.4957 36.0545 28.2708 35.2793C29.046 34.5041 30.2958 34.5041 31.071 35.2793L39.6457 43.8539L48.2203 35.2793C48.9955 34.5041 50.2453 34.5041 51.0205 35.2793C51.7957 36.0545 51.7957 37.3043 51.0205 38.0795L41.0537 48.0621C40.6582 48.4418 40.1519 48.6475 39.6298 48.6475Z" fill="white"/>
<path d="M39.6299 48.6474C38.5383 48.6474 37.6523 47.7615 37.6523 46.6699V26.7205C37.6523 25.6289 38.5383 24.7429 39.6299 24.7429C40.7215 24.7429 41.6074 25.6289 41.6074 26.7205V46.6699C41.6074 47.7615 40.7215 48.6474 39.6299 48.6474Z" fill="white"/>
<path d="M39.6299 23.7146C38.5383 23.7146 37.6523 22.8287 37.6523 21.7371V20.4873C37.6523 19.3957 38.5383 18.5098 39.6299 18.5098C40.7215 18.5098 41.6074 19.3957 41.6074 20.4873V21.7371C41.6074 22.8287 40.7215 23.7146 39.6299 23.7146Z" fill="white"/>
<path d="M39.6299 61.541C27.5432 61.541 17.7188 51.7166 17.7188 39.6299C17.7188 31.8147 21.9111 24.5531 28.6822 20.6614C29.6314 20.1235 30.8338 20.4399 31.3875 21.3891C31.9254 22.3383 31.609 23.5406 30.6598 24.0944C25.1227 27.2742 21.6896 33.2385 21.6896 39.6457C21.6896 49.5492 29.7422 57.6018 39.6457 57.6018C49.5492 57.6018 57.5859 49.5334 57.5859 39.6299C57.5859 33.2385 54.1529 27.2901 48.6 24.0785C47.6508 23.5248 47.3344 22.3225 47.8723 21.3733C48.426 20.424 49.6283 20.1076 50.5775 20.6455C57.3328 24.5531 61.5252 31.8147 61.5252 39.6141C61.541 51.7166 51.7166 61.541 39.6299 61.541Z" fill="white"/>
</svg>
